<?xml version="1.0" standalone="no"?>
<!DOCTYPE svg PUBLIC "-//W3C//DTD SVG 20010904//EN"
 "http://www.w3.org/TR/2001/REC-SVG-20010904/DTD/svg10.dtd">
<svg version="1.0" xmlns="http://www.w3.org/2000/svg"
 width="432.000000pt" height="432.000000pt" viewBox="0 0 432.000000 432.000000"
 preserveAspectRatio="xMidYMid meet">
<metadata>
Created by potrace 1.11, written by Peter Selinger 2001-2013
</metadata>
<g transform="translate(0.000000,432.000000) scale(0.100000,-0.100000)"
fill="#000000" stroke="none">
<path d="M3649 4305 c-15 -8 -41 -17 -59 -20 -51 -9 -79 -35 -106 -100 -38
-91 -31 -110 71 -213 48 -48 92 -98 97 -112 6 -14 10 -71 9 -127 -1 -56 3
-120 8 -142 7 -33 6 -41 -5 -41 -17 0 -17 -5 -2 -33 13 -24 13 -27 22 -437 17
-870 28 -2291 17 -2308 -3 -5 -13 -9 -21 -10 -8 0 -49 -3 -90 -7 -90 -7 -189
-13 -247 -14 -24 -1 -43 -6 -43 -11 0 -18 99 -138 160 -195 49 -46 155 -186
167 -220 5 -16 9 -41 7 -55 -2 -14 -4 -48 -5 -77 -2 -67 32 -129 89 -161 l40
-22 55 54 c60 58 102 119 113 160 3 14 17 36 29 49 16 15 26 41 30 72 8 56 54
204 82 261 11 21 18 50 17 64 -2 23 -5 69 -18 320 -19 353 -26 569 -31 966 -2
160 0 296 4 303 5 7 1 31 -7 54 -15 40 -17 100 -9 285 1 45 -10 201 -19 252
-12 66 -4 470 11 585 3 22 7 60 10 85 7 58 14 110 20 140 51 263 48 396 -12
459 -25 26 -196 137 -263 171 -76 38 -91 41 -121 25z"/>
<path d="M1190 4183 c-47 -9 -58 -28 -72 -123 -1 -10 -57 -86 -81 -110 -14
-14 -40 -36 -59 -50 -56 -41 -122 -115 -147 -164 -26 -53 -17 -52 -129 -19
-62 17 -64 17 -99 -2 -68 -38 -69 -73 -3 -145 39 -43 40 -47 34 -95 -4 -27 -8
-120 -8 -205 -2 -168 -3 -174 -87 -324 -22 -38 -22 -39 -5 -105 21 -83 24 -98
25 -138 1 -44 42 -88 102 -111 l51 -19 59 59 c32 32 59 62 59 67 0 5 33 38 73
73 104 90 130 111 238 190 l96 71 0 49 c1 36 6 53 20 64 25 19 82 9 108 -19
30 -33 66 -53 106 -61 34 -6 36 -5 32 18 -4 18 0 26 16 31 25 7 26 22 7 92
-56 211 -252 356 -395 292 -23 -10 -44 -25 -47 -33 -9 -24 25 -83 56 -96 58
-24 91 -88 71 -138 -9 -21 -27 -33 -74 -51 -74 -29 -181 -80 -219 -105 -16
-10 -29 -14 -29 -10 -1 5 -2 132 -3 283 -1 283 2 302 39 271 12 -10 15 -10 15
2 0 24 151 90 260 113 28 6 277 109 288 120 2 1 5 19 9 38 4 30 0 46 -26 86
-18 27 -33 59 -34 70 -1 14 -8 21 -22 21 -29 0 -95 37 -118 66 -16 21 -70 57
-79 53 -2 -1 -14 -4 -28 -6z"/>
<path d="M2303 4071 c-24 -14 -45 -33 -48 -42 -5 -15 -65 -29 -235 -56 -86
-13 -321 -56 -352 -64 -21 -5 -38 -14 -38 -19 0 -28 27 -69 75 -112 39 -36 58
-63 70 -99 16 -49 16 -49 -16 -131 -42 -109 -116 -328 -134 -400 -9 -32 -18
-65 -22 -73 -11 -31 100 47 174 121 72 72 99 115 123 189 39 125 161 375 203
417 47 46 86 62 154 63 34 0 67 -5 72 -10 14 -14 -17 -164 -60 -293 -29 -88
-130 -301 -163 -344 -12 -17 -17 -17 -66 -2 -29 9 -70 27 -92 41 -47 32 -66
21 -43 -23 8 -16 15 -35 15 -42 0 -7 13 -39 29 -71 35 -69 63 -171 59 -215 -3
-29 -5 -31 -38 -28 -19 2 -43 6 -53 8 -11 2 -76 6 -145 10 -104 6 -127 4 -136
-8 -6 -8 -23 -18 -38 -21 -34 -9 -58 14 -58 56 0 40 -7 50 -48 71 -53 27 -124
32 -161 10 -17 -10 -31 -25 -32 -34 -2 -51 -30 -116 -69 -160 -12 -14 -33 -48
-46 -77 -42 -91 -200 -314 -313 -443 -30 -34 -41 -57 -21 -45 6 3 10 4 10 2 0
-3 -66 -90 -148 -194 -217 -275 -320 -405 -428 -537 -72 -89 -130 -162 -129
-164 2 -2 24 6 49 18 25 11 61 23 79 27 32 6 64 35 317 300 98 102 273 289
310 333 12 14 56 63 98 109 42 46 79 87 80 92 5 13 18 11 34 -4 27 -27 124
-95 138 -98 8 -1 41 3 73 11 43 10 63 10 82 2 22 -10 24 -16 20 -66 -4 -63
-24 -106 -66 -147 -33 -32 -93 -66 -130 -73 -72 -13 -161 -52 -226 -99 -42
-30 -43 -30 -138 -23 -81 6 -99 5 -125 -11 -16 -9 -30 -22 -31 -28 -1 -5 -2
-22 -3 -37 -4 -36 48 -142 75 -154 30 -14 113 5 174 39 89 51 248 125 332 156
l81 30 7 -37 c12 -76 15 -110 22 -221 5 -100 4 -116 -11 -126 -17 -13 -13 -45
6 -45 7 0 8 -26 5 -73 -7 -84 -9 -92 -37 -191 -23 -82 -32 -192 -20 -254 l7
-40 -86 -32 c-276 -105 -517 -163 -634 -154 -62 6 -80 3 -127 -17 -37 -16 -74
-24 -113 -24 -72 0 -78 -13 -42 -89 18 -39 24 -63 20 -87 -3 -18 -3 -31 0 -27
4 3 23 -9 43 -28 21 -19 40 -30 46 -26 32 24 344 128 439 146 12 2 65 12 117
22 52 9 124 30 160 47 108 48 238 94 360 127 63 17 122 34 130 37 8 3 29 6 45
8 17 1 80 10 140 19 150 22 179 24 343 25 135 1 142 2 142 21 0 11 16 37 35
59 19 21 35 45 35 54 0 21 -87 96 -119 103 -14 3 -41 12 -59 20 -43 19 -96 18
-134 -2 -17 -9 -53 -16 -79 -16 -28 0 -53 -6 -60 -14 -14 -17 -61 -32 -122
-39 -27 -3 -67 -14 -89 -25 -23 -11 -44 -17 -47 -14 -3 3 -5 36 -5 74 0 61 3
72 25 90 164 143 294 271 450 442 107 119 115 130 113 164 -4 47 -23 75 -85
124 -53 42 -107 61 -173 62 -92 1 -96 0 -112 -37 -19 -45 -18 -48 12 -84 l26
-31 -50 -87 c-69 -121 -120 -212 -139 -250 -9 -18 -20 -33 -24 -33 -4 0 -16
19 -27 43 -21 44 -23 121 -5 233 9 58 9 131 -2 194 -6 38 -4 49 15 73 36 45
94 69 182 73 105 5 131 20 169 97 16 34 22 52 12 39 l-18 -22 -34 25 c-45 33
-82 44 -202 61 -14 2 -42 -5 -61 -14 l-34 -18 -17 40 c-31 76 -31 99 -3 133
14 17 26 40 26 51 0 30 27 52 64 52 50 0 68 19 68 71 1 120 1 120 -139 102
-139 -18 -257 -44 -411 -89 -67 -20 -125 -35 -127 -32 -7 7 33 96 46 104 6 3
31 48 55 99 46 96 90 149 140 170 23 9 45 7 124 -12 52 -13 104 -25 115 -27
11 -3 84 -18 161 -34 78 -17 155 -37 172 -46 17 -9 74 -22 127 -30 71 -11 108
-22 136 -41 22 -14 39 -30 39 -35 0 -6 10 -8 23 -5 13 4 44 -3 71 -15 48 -20
124 -31 157 -23 15 4 16 9 7 32 -5 14 -11 51 -13 81 -5 71 -10 95 -29 121 -14
21 -86 74 -86 64 0 -12 -80 36 -94 57 -9 12 -16 17 -16 11 0 -8 -16 -10 -52
-6 -73 8 -98 19 -98 43 0 28 29 54 100 90 44 22 60 36 60 51 0 25 17 59 40 79
14 12 48 102 56 146 6 34 139 391 174 469 47 101 57 139 48 182 -11 53 -46 88
-132 133 -53 28 -68 32 -75 21 -7 -10 -12 -8 -24 9 -22 32 -72 32 -124 1z"/>
<path d="M2800 3048 c-37 -10 -87 -42 -107 -66 -16 -19 4 -69 50 -126 48 -59
49 -61 36 -112 -12 -46 -11 -48 15 -69 18 -15 24 -25 17 -29 -8 -5 -11 -113
-11 -380 1 -404 5 -442 55 -534 29 -53 114 -152 131 -152 5 0 10 14 11 32 1
17 16 52 32 77 84 128 125 241 115 316 -7 49 -6 160 2 191 10 43 23 54 55 50
25 -3 27 -1 17 11 -7 9 -21 12 -35 8 l-23 -5 0 252 c0 239 -1 258 -25 348 -35
131 -35 130 -50 130 -7 0 -45 14 -84 30 -79 34 -149 44 -201 28z"/>
<path d="M2311 2490 c0 -14 7 -43 15 -65 l14 -40 -5 54 c-5 55 -26 99 -24 51z"/>
<path d="M4056 2261 c-9 -13 -11 -12 47 -15 54 -3 50 11 -5 20 -21 4 -38 2
-42 -5z"/>
<path d="M826 1393 c-42 -12 -46 -16 -40 -36 4 -12 17 -34 30 -49 27 -33 41
-75 47 -143 3 -27 18 -75 34 -105 42 -83 56 -119 50 -134 -3 -7 5 -19 17 -26
12 -6 30 -24 39 -38 26 -45 86 -102 106 -102 10 0 43 15 74 33 49 28 56 35 52
57 -5 24 -8 46 -20 120 -14 93 -29 159 -35 155 -4 -2 -16 3 -28 11 -27 19 -29
63 -4 90 44 49 44 51 28 82 -15 30 -29 34 -54 18 -7 -4 -25 -3 -40 3 -15 5
-42 12 -60 15 -37 5 -62 22 -62 41 0 25 -62 29 -134 8z"/>
</g>
</svg>
